PathFileType	4	(x/y/z)	Passive_Pref0007.trc
DataRate	CameraRate	NumFrames	NumMarkers	Units	OrigDataRate	OrigDataStartFrame	OrigNumFrames
240	240	5	50	mm	240	150	299
Frame#	Time	R_AC			L_AC			HEAD			STERN			C7			L_IC			R_IC			L_ASIS			R_ASIS			L_GT			R_GT			R_PSIS			L_PSIS			SACRAL			L_LAT_KNEE			L_MED_KNEE			R_LAT_KNEE			R_MED_KNEE			L_LAT_ANK			L_MED_ANK			R_LAT_ANK			R_MED_ANK			L_THIGH_PROX_POST			L_THIGH_PROX_ANT			L_THIGH_DIST_ANT			L_THIGH_DIST_POST			R_THIGH_PROX_POST			R_THIGH_PROX_ANT			R_THIGH_DIST_ANT			R_THIGH_DIST_POST			L_SHANK_PROX_POST			L_SHANK_PROX_ANT			L_SHANK_DIST_ANT			L_SHANK_DIST_POST			R_SHANK_PROX_POST			R_SHANK_PROX_ANT			R_SHANK_DIST_ANT			R_SHANK_DIST_POST			L_HEEL_LAT			L_HEEL_SUP			L_HEEL_MED			R_HEEL_LAT			R_HEEL_SUP			R_HEEL_MED			L_1ST_MET			L_5TH_MET			L_TOE			R_1ST_MET			R_5TH_MET			R_TOE			
		X1	Y1	Z1	X2	Y2	Z2	X3	Y3	Z3	X4	Y4	Z4	X5	Y5	Z5	X6	Y6	Z6	X7	Y7	Z7	X8	Y8	Z8	X9	Y9	Z9	X10	Y10	Z10	X11	Y11	Z11	X12	Y12	Z12	X13	Y13	Z13	X14	Y14	Z14	X15	Y15	Z15	X16	Y16	Z16	X17	Y17	Z17	X18	Y18	Z18	X19	Y19	Z19	X20	Y20	Z20	X21	Y21	Z21	X22	Y22	Z22	X23	Y23	Z23	X24	Y24	Z24	X25	Y25	Z25	X26	Y26	Z26	X27	Y27	Z27	X28	Y28	Z28	X29	Y29	Z29	X30	Y30	Z30	X31	Y31	Z31	X32	Y32	Z32	X33	Y33	Z33	X34	Y34	Z34	X35	Y35	Z35	X36	Y36	Z36	X37	Y37	Z37	X38	Y38	Z38	X39	Y39	Z39	X40	Y40	Z40	X41	Y41	Z41	X42	Y42	Z42	X43	Y43	Z43	X44	Y44	Z44	X45	Y45	Z45	X46	Y46	Z46	X47	Y47	Z47	X48	Y48	Z48	X49	Y49	Z49	X50	Y50	Z50	

150	0.62292	-9.2714	1494.1	495.68	-36.324	1518.5	93.488	38.159	1817.4	310.43	62.12	1450.2	296.53	-88.417	1548.8	301.81	-88.5	1078.7	127.79	-35.08	1092.6	467.14	-15.444	1001	143.4	34.605	1013.5	411	-139.65	934.8	115.76	-48.79	930.86	477.95	-193.02	1005.2	363.59	-210.49	1018.1	281.77	-214.09	978.98	319.07	-229.18	545.95	141.8	-199.99	546.31	277.87	106.04	540.14	447.51	101.28	536.42	312.3	-450.37	155.96	167.64	-468.88	152.61	248.6	237.6	94.448	406.64	260.11	133.79	309.48	-148.93	774.29	118.2	-88.34	751.56	137.95	-106.38	682.26	145.45	-168.61	700.47	128.81	-43.146	772.8	460.5	16.166	796.27	480.75	35.304	723.97	472.32	-13.94	704.78	451.29	-247.98	494.37	154.62	-186.92	498.17	165.95	-212.58	436.43	179.97	-268.94	435.75	158.63	111.21	369.61	451.96	165.62	390.62	449.79	190.1	319.84	439.53	138.51	296.79	438.96	-531.78	99.976	165.36	-543.03	129.22	198.48	-546.21	99.765	232.98	187.34	28.158	362.24	182.84	55.297	326.72	216.89	41.598	303.56	-343.46	36.785	282.78	-341.17	41.939	166.55	-276.43	48.22	250.26	408.23	128.44	336.79	367.68	94.548	443.97	442.34	157.27	399.73
151	0.6271	-3.6047	1493.2	496.81	-30.508	1517.9	94.597	43.49	1816.8	311.5	67.964	1449.6	297.64	-82.705	1548	302.93	-82.093	1077.9	128.08	-29.032	1091.6	467.67	-9.165	1000	143.71	40.772	1013.1	411.38	-133.45	933.88	116.03	-42.43	930.43	478.31	-186.8	1004.3	363.89	-204.24	1017.2	282.04	-207.84	978.05	319.33	-224.08	545.48	142.28	-194.97	545.5	278.33	113.04	540.01	447.27	107.8	536.36	312.17	-448.8	157.46	167.83	-467.4	154.25	248.84	240.07	93.557	406.26	262.88	131.83	308.71	-143.13	773.54	118.66	-82.408	750.78	138.34	-100.62	681.39	145.87	-163	699.76	129.23	-36.585	772.4	460.6	22.702	795.93	480.91	42.001	723.68	472.27	-7.2461	704.46	451.24	-243.35	494.07	155.09	-182.25	497.3	166.39	-208.47	435.79	180.37	-264.84	435.64	159.02	117.18	369.36	451.75	171.75	389.88	449.2	195.53	318.87	438.87	143.74	296.28	438.65	-530.74	102.4	165.56	-541.65	131.71	198.68	-545.11	102.21	233.09	188.17	28.495	362.11	184.14	55.592	326.48	217.84	40.839	303.32	-343.14	37.04	282.85	-340.82	42.219	166.58	-276.03	47.858	250.31	411.05	123.79	335.5	370.13	91.15	442.85	446.07	152.1	398.28
152	0.63128	2.0401	1492.2	497.94	-24.68	1517.4	95.704	48.825	1816.2	312.57	73.808	1449	298.76	-76.997	1547.2	304.06	-75.63	1077.1	128.37	-22.968	1090.7	468.19	-2.8462	999.1	144.03	46.939	1012.8	411.77	-127.2	932.96	116.3	-36.096	930.07	478.68	-180.59	1003.4	364.15	-197.97	1016.4	282.27	-201.56	977.18	319.55	-218.81	544.99	142.78	-189.8	544.66	278.8	119.99	539.95	447.09	114.25	536.36	312.09	-447.12	159.03	168.03	-465.79	155.99	249.08	242.43	92.73	405.96	265.54	129.96	308.02	-137.23	772.79	119.13	-76.35	750.02	138.74	-94.842	680.55	146.33	-157.27	699.03	129.67	-30.048	772.07	460.74	29.19	795.65	481.14	48.656	723.46	472.29	-0.58996	704.2	451.24	-238.57	493.77	155.57	-177.43	496.4	166.85	-204.22	435.14	180.79	-260.59	435.53	159.43	123.09	369.19	451.6	177.83	389.21	448.68	200.89	317.98	438.28	148.91	295.85	438.42	-529.6	104.99	165.77	-540.16	134.35	198.88	-543.92	104.84	233.23	188.93	28.911	362.02	185.36	55.979	326.3	218.69	40.206	303.14	-342.79	37.331	282.92	-340.46	42.53	166.61	-275.62	47.483	250.37	413.73	119.18	334.31	372.45	87.763	441.82	449.67	146.91	396.93
153	0.63546	7.6623	1491.3	499.08	-18.844	1516.9	96.804	54.166	1815.7	313.65	79.651	1448.5	299.88	-71.293	1546.5	305.18	-69.114	1076.3	128.63	-16.894	1089.9	468.72	3.5095	998.17	144.37	53.1	1012.6	412.17	-120.9	932.05	116.57	-29.795	929.79	479.06	-174.39	1002.7	364.38	-191.69	1015.6	282.46	-195.28	976.36	319.75	-213.37	544.47	143.28	-184.45	543.79	279.29	126.88	539.95	446.99	120.65	536.41	312.06	-445.35	160.69	168.25	-464.04	157.82	249.34	244.68	91.966	405.74	268.1	128.19	307.43	-131.24	772.04	119.63	-70.172	749.29	139.18	-89.058	679.72	146.81	-151.41	698.3	130.13	-23.533	771.83	460.93	35.63	795.45	481.42	55.271	723.31	472.37	6.0282	704.02	451.31	-233.62	493.45	156.05	-172.44	495.48	167.32	-199.83	434.47	181.22	-256.19	435.42	159.86	128.94	369.09	451.53	183.85	388.61	448.24	206.18	317.17	437.77	154.01	295.5	438.27	-528.35	107.74	165.99	-538.54	137.15	199.08	-542.62	107.65	233.39	189.62	29.39	361.99	186.49	56.448	326.19	219.46	39.7	303	-342.42	37.662	283	-340.06	42.875	166.65	-275.19	47.095	250.43	416.27	114.65	333.23	374.64	84.406	440.88	453.1	141.75	395.69
154	0.63964	13.261	1490.5	500.21	-13.003	1516.4	97.896	59.51	1815.2	314.73	85.489	1448.1	301.01	-65.597	1545.8	306.29	-62.549	1075.6	128.88	-10.817	1089.1	469.24	9.8986	997.28	144.73	59.249	1012.4	412.58	-114.54	931.15	116.84	-23.534	929.6	479.46	-168.2	1001.9	364.58	-185.41	1014.8	282.61	-188.98	975.6	319.91	-207.74	543.94	143.8	-178.91	542.88	279.79	133.73	540.02	446.95	126.99	536.54	312.08	-443.47	162.43	168.47	-462.14	159.75	249.6	246.81	91.263	405.6	270.56	126.52	306.95	-125.16	771.29	120.15	-63.881	748.58	139.64	-83.309	678.92	147.33	-145.41	697.56	130.6	-17.04	771.66	461.17	42.024	795.32	481.76	61.848	723.24	472.53	12.609	703.91	451.45	-228.5	493.12	156.55	-167.3	494.52	167.79	-195.29	433.79	181.65	-251.64	435.3	160.29	134.72	369.07	451.55	189.79	388.09	447.89	211.39	316.42	437.34	159.03	295.25	438.21	-526.98	110.67	166.21	-536.78	140.13	199.29	-541.19	110.65	233.57	190.25	29.92	362	187.56	56.985	326.13	220.16	39.316	302.92	-342.03	38.037	283.07	-339.64	43.258	166.68	-274.75	46.695	250.48	418.68	110.21	332.26	376.69	81.096	440.05	456.38	136.65	394.58
